Coordinates
version=1
nRows=21
nColumns=28
inDegrees=yes

Units are S.I. units (second, meters, Newtons, ...)
Angles are in degrees.

endheader
time	pelvis_tilt	pelvis_list	pelvis_rotation	pelvis_tx	pelvis_ty	pelvis_tz	hip_flexion_r	hip_adduction_r	hip_rotation_r	knee_angle_r	ankle_angle_r	subtalar_angle_r	mtp_angle_r	hip_flexion_l	hip_adduction_l	hip_rotation_l	knee_angle_l	socket_flexion	socket_adduction	socket_rotation	socket_tx	socket_ty	socket_tz	foot_flex	lumbar_extension	lumbar_bending	lumbar_rotation
      0.96666667	      3.00126417	     -4.78323782	     -2.40406089	      0.38310309	      1.01792685	      0.29688314	      5.80242937	     13.00537704	      5.99666274	    -22.55765563	      2.96051997	    -19.52501234	     21.52530685	     14.44376298	    -12.15170414	      2.54225284	    -50.98757766	     10.99293817	      9.20007028	     14.59598540	      0.09905181	      0.06065492	     -0.04616809	      2.30764597	    -11.38125734	      4.13244319	      9.55300641
      0.97083333	      2.95424000	     -4.71755833	     -2.67295405	      0.38751985	      1.01882769	      0.29735317	      5.39749560	     12.89215505	      6.15221531	    -22.27216931	      2.90432840	    -19.21453262	     21.63659192	     15.04763614	    -12.15367338	      2.63089432	    -50.83104150	     10.83073051	      9.24069707	     14.62275388	      0.09863413	      0.06060349	     -0.04660300	      2.31243586	    -11.37278108	      4.00903389	      9.78234264
      0.97500000	      2.94246420	     -4.69029919	     -2.99065452	      0.39187295	      1.01967669	      0.29770375	      5.07180251	     12.79119064	      6.11455903	    -22.21148315	      2.89985920	    -19.14958243	     21.66070658	     15.50108031	    -12.14484562	      2.67559406	    -50.60647572	     10.61053135	      9.24186808	     14.61910753	      0.09798749	      0.05981320	     -0.04659228	      2.33940702	    -11.44986972	      4.01383862	      9.83845698
      0.97916667	      2.87463011	     -4.59442889	     -3.20483456	      0.39620213	      1.02059629	      0.29838240	      4.59640745	     12.69233981	      6.45693175	    -21.72571914	      2.79374785	    -18.67426277	     21.81478293	     16.20072098	    -12.14127693	      2.84571168	    -50.44982515	     10.45013321	      9.28545068	     14.67350891	      0.09748434	      0.06032810	     -0.04736300	      2.31808701	    -11.37298364	      3.75654398	     10.17322253
      0.98333333	      2.77940901	     -4.57331558	     -3.51341820	      0.40069969	      1.02131756	      0.29876742	      4.22894102	     12.59597006	      6.62166107	    -21.41490508	      2.70808762	    -18.26001873	     21.98272251	     16.79178097	    -12.17823911	      2.88634237	    -50.23878778	     10.23423768	      9.28747915	     14.63742410	      0.09703363	      0.05997138	     -0.04751280	      2.32818260	    -11.30477719	      3.67952846	     10.51446433
      0.98750000	      2.70484147	     -4.52727952	     -3.81873781	      0.40502882	      1.02204522	      0.29922531	      3.88829956	     12.49320836	      6.77035275	    -21.18494001	      2.65550205	    -17.90608845	     22.14956190	     17.35385343	    -12.19111801	      2.95014356	    -49.99387062	      9.99762950	      9.28207454	     14.66192505	      0.09633575	      0.05960276	     -0.04786646	      2.33536025	    -11.27039108	      3.58164307	     10.80135777
      0.99166667	      2.62369775	     -4.48950497	     -4.11915754	      0.40941408	      1.02276218	      0.29965861	      3.54150115	     12.39244224	      6.91541706	    -20.92744961	      2.60624819	    -17.56054168	     22.31972546	     17.89571983	    -12.20131800	      3.00293785	    -49.73398637	      9.74964344	      9.24014039	     14.64267702	      0.09557802	      0.05916144	     -0.04800421	      2.34243020	    -11.21973831	      3.50009627	     11.07323842
      0.99583333	      2.51381635	     -4.46422341	     -4.42315809	      0.41370420	      1.02342297	      0.30009372	      3.23529151	     12.31173708	      7.09929656	    -20.67699635	      2.53348463	    -17.14425335	     22.54791776	     18.42624175	    -12.18744821	      3.04739405	    -49.43104626	      9.47204401	      9.15987584	     14.62705482	      0.09466975	      0.05836702	     -0.04773703	      2.35744797	    -11.18064774	      3.41366403	     11.40101677
      1.00000000	      2.51678861	     -4.45931217	     -4.72782192	      0.41785901	      1.02406431	      0.30043921	      2.93742021	     12.23218002	      7.04316358	    -20.67320159	      2.53543809	    -17.11225644	     22.56861090	     18.85753241	    -12.18982290	      3.09877322	    -49.13856972	      9.20053045	      9.08244902	     14.60267614	      0.09390905	      0.05769891	     -0.04760472	      2.39249778	    -11.26658568	      3.40862609	     11.42965217
      1.00416667	      2.35636792	     -4.41169702	     -5.04561121	      0.42240322	      1.02468812	      0.30077222	      2.56752737	     12.11270771	      7.39936510	    -20.21992974	      2.38316234	    -16.49524547	     22.90006757	     19.38522494	    -12.13246401	      3.13702307	    -48.80198656	      8.88735675	      8.97463677	     14.52177628	      0.09286310	      0.05689446	     -0.04716630	      2.39837566	    -11.07462638	      3.32752380	     11.90391832
      1.00833333	      2.34682282	     -4.41149300	     -5.32115367	      0.42644914	      1.02526700	      0.30121583	      2.28888728	     12.05179754	      7.34219238	    -20.20109749	      2.38999775	    -16.46697116	     22.92127703	     19.82142821	    -12.15580662	      3.18741572	    -48.48228487	      8.59535814	      8.87239153	     14.48665565	      0.09188502	      0.05618244	     -0.04696608	      2.42918383	    -11.18880576	      3.26912604	     11.92475219
      1.01250000	      2.21514555	     -4.34365449	     -5.54228083	      0.43098165	      1.02587795	      0.30164570	      1.87016755	     11.92658428	      7.64245064	    -19.68713393	      2.32110783	    -16.06032327	     23.11950385	     20.32420385	    -12.08606661	      3.27367546	    -48.10746063	      8.24974821	      8.76443519	     14.43498492	      0.09064206	      0.05536701	     -0.04656977	      2.39001400	    -11.03695176	      3.11091949	     12.20527072
      1.01666667	      2.20670072	     -4.35059638	     -5.81777027	      0.43498413	      1.02634483	      0.30193757	      1.60169044	     11.85776418	      7.60479096	    -19.69058966	      2.31477149	    -16.02723688	     23.13997488	     20.74086790	    -12.09323124	      3.33175936	    -47.76892768	      7.94701177	      8.62760619	     14.39340942	      0.08960978	      0.05463039	     -0.04631713	      2.43305729	    -11.14138941	      3.10647872	     12.23475088
      1.02083333	      2.03116451	     -4.31705703	     -6.07449251	      0.43968584	      1.02688621	      0.30225604	      1.19347817	     11.75599702	      7.94596433	    -19.12505240	      2.19185553	    -15.57374808	     23.34523764	     21.13148110	    -11.99122096	      3.37793024	    -47.31596943	      7.53692228	      8.43136868	     14.23051030	      0.08790986	      0.05305149	     -0.04507679	      2.41303728	    -10.90849262	      3.03919612	     12.55777232
      1.02500000	      2.01778886	     -4.32634838	     -6.32743449	      0.44357785	      1.02726130	      0.30255043	      0.94559312	     11.69530339	      7.91621544	    -19.14173764	      2.18259259	    -15.54208963	     23.36600118	     21.54055562	    -12.00606685	      3.43811037	    -46.95413090	      7.21683186	      8.27705765	     14.18867345	      0.08668289	      0.05226020	     -0.04479681	      2.45863397	    -11.03529966	      3.01642277	     12.58620179
      1.02916667	      1.83049973	     -4.21032266	     -6.80940799	      0.44809436	      1.02772450	      0.30323685	      0.62489944	     11.51015829	      8.43187881	    -18.71262480	      1.90245236	    -14.81699360	     23.83763931	     21.67361057	    -11.93522144	      3.43005555	    -46.38646408	      6.64971254	      8.21786212	     13.85201053	      0.08349017	      0.04975237	     -0.04400522	      2.48432256	    -10.81793413	      2.81241108	     13.20768877
      1.03333333	      1.75160887	     -4.24938572	     -6.99751661	      0.45245224	      1.02805246	      0.30331097	      0.33316158	     11.46593210	      8.42554545	    -18.55832894	      1.98688175	    -14.73228051	     23.96815250	     21.92200646	    -11.86773459	      3.50400846	    -45.87677193	      6.22045977	      7.93489518	     13.77680445	      0.08141510	      0.04768038	     -0.04263796	      2.45971924	    -10.77298937	      2.86528679	     13.33767548
      1.03750000	      1.63663768	     -4.22506126	     -7.22139450	      0.45684846	      1.02839304	      0.30356854	     -0.00566003	     11.36313317	      8.58587526	    -18.21122408	      1.96593422	    -14.50111451	     24.13660700	     22.15180017	    -11.78999793	      3.57580544	    -45.34704199	      5.74690650	      7.72196023	     13.61529207	      0.07882356	      0.04565225	     -0.04149736	      2.46780937	    -10.68273611	      2.81875517	     13.49741529
      1.04166667	      1.53710233	     -4.21266134	     -7.46842812	      0.46108019	      1.02867709	      0.30381512	     -0.28962498	     11.27730066	      8.74531425	    -18.00185349	      1.89429968	    -14.28687890	     24.29377285	     22.30270674	    -11.71114357	      3.65709768	    -44.78361994	      5.24632778	      7.49036219	     13.43240836	      0.07582809	      0.04329654	     -0.04018888	      2.48003367	    -10.63679829	      2.79082392	     13.64711292
      1.04583333	      1.51250217	     -4.23624326	     -7.66630886	      0.46478342	      1.02883531	      0.30413719	     -0.51646633	     11.24481754	      8.71309281	    -18.00411418	      1.89360106	    -14.26580897	     24.31233736	     22.68566158	    -11.74626973	      3.71023138	    -44.37908244	      4.89101385	      7.30451863	     13.36336605	      0.07416526	      0.04249553	     -0.03963981	      2.52477964	    -10.77690077	      2.72612930	     13.66024339
      1.05000000	      1.41161961	     -4.03315041	     -8.16372553	      0.46948485	      1.02937334	      0.30493979	     -0.96759522	     10.95557486	      9.37285172	    -17.50315930	      1.61367196	    -13.62965237	     24.83521476	     22.03444218	    -11.50877921	      3.99001328	    -43.43061244	      3.92776037	      7.35284366	     12.64550465	      0.06663235	      0.03700968	     -0.03805536	      2.51707323	    -10.59434996	      2.38419357	     14.16402971
